# Blender 4.0.2
# www.blender.org
mtllib table.mtl
o Table
v -1.500000 -0.025000 1.000000
v -1.500000 0.025000 1.000000
v -1.500000 -0.025000 -1.000000
v -1.500000 0.025000 -1.000000
v 1.500000 -0.025000 1.000000
v 1.500000 0.025000 1.000000
v 1.500000 -0.025000 -1.000000
v 1.500000 0.025000 -1.000000
vn -1.0000 -0.0000 -0.0000
vn -0.0000 -0.0000 -1.0000
vn 1.0000 -0.0000 -0.0000
vn -0.0000 -0.0000 1.0000
vn -0.0000 -1.0000 -0.0000
vn -0.0000 1.0000 -0.0000
vt 0.499871 0.499482
vt 0.500129 0.499482
vt 0.500129 0.499741
vt 0.499871 0.499741
vt 0.500129 0.500000
vt 0.499871 0.500000
vt 0.500129 0.500259
vt 0.499871 0.500259
vt 0.500129 0.500518
vt 0.499871 0.500518
vt 0.570838 0.215630
vt 0.570838 0.534370
vt 0.429162 0.534370
vt 0.429162 0.215630
vt 1.000000 1.000000
vt 0.000000 1.000000
vt 0.000000 0.000000
vt 1.000000 0.000000
s 0
usemtl Vinyle
f 1/1/1 2/2/1 4/3/1 3/4/1
f 3/4/2 4/3/2 8/5/2 7/6/2
f 7/6/3 8/5/3 6/7/3 5/8/3
f 5/8/4 6/7/4 2/9/4 1/10/4
f 3/11/5 7/12/5 5/13/5 1/14/5
f 8/15/6 4/16/6 2/17/6 6/18/6
o Bordures_verticales
v -1.522000 0.025000 1.000000
v -1.522000 0.095000 1.000000
v -1.522000 0.025000 -1.000000
v -1.522000 0.095000 -1.000000
v -1.500000 0.025000 1.000000
v -1.500000 0.095000 1.000000
v -1.500000 0.025000 -1.000000
v -1.500000 0.095000 -1.000000
v 1.522000 0.025000 1.000000
v 1.522000 0.095000 1.000000
v 1.522000 0.025000 -1.000000
v 1.522000 0.095000 -1.000000
v 1.500000 0.025000 1.000000
v 1.500000 0.095000 1.000000
v 1.500000 0.025000 -1.000000
v 1.500000 0.095000 -1.000000
vn -1.0000 -0.0000 -0.0000
vn -0.0000 -0.0000 -1.0000
vn 1.0000 -0.0000 -0.0000
vn -0.0000 -0.0000 1.0000
vn -0.0000 -1.0000 -0.0000
vn -0.0000 1.0000 -0.0000
vt 0.498942 0.504368
vt 0.499059 0.504368
vt 0.499059 0.504486
vt 0.498942 0.504486
vt 0.499059 0.504604
vt 0.498942 0.504604
vt 0.499059 0.504721
vt 0.498942 0.504721
vt 0.499059 0.504839
vt 0.498942 0.504839
vt 0.498824 0.504604
vt 0.498824 0.504721
vt 0.499177 0.504604
vt 0.499177 0.504721
s 0
usemtl Vinyle
f 9/19/7 10/20/7 12/21/7 11/22/7
f 11/22/8 12/21/8 16/23/8 15/24/8
f 15/24/9 16/23/9 14/25/9 13/26/9
f 13/26/10 14/25/10 10/27/10 9/28/10
f 11/29/11 15/24/11 13/26/11 9/30/11
f 16/23/12 12/31/12 10/32/12 14/25/12
f 17/19/9 19/22/9 20/21/9 18/20/9
f 19/22/8 23/24/8 24/23/8 20/21/8
f 23/24/7 21/26/7 22/25/7 24/23/7
f 21/26/10 17/28/10 18/27/10 22/25/10
f 19/29/11 17/30/11 21/26/11 23/24/11
f 24/23/12 22/25/12 18/32/12 20/31/12
o Borduresn_horizontales
v 1.522000 0.025000 1.022000
v 1.522000 0.095000 1.022000
v -1.522000 0.025000 1.022000
v -1.522000 0.095000 1.022000
v 1.522000 0.025000 1.000000
v 1.522000 0.095000 1.000000
v -1.522000 0.025000 1.000000
v -1.522000 0.095000 1.000000
v 1.522000 0.025000 -1.022000
v 1.522000 0.095000 -1.022000
v -1.522000 0.025000 -1.022000
v -1.522000 0.095000 -1.022000
v 1.522000 0.025000 -1.000000
v 1.522000 0.095000 -1.000000
v -1.522000 0.025000 -1.000000
v -1.522000 0.095000 -1.000000
vn -0.0000 -0.0000 1.0000
vn -1.0000 -0.0000 -0.0000
vn -0.0000 -0.0000 -1.0000
vn 1.0000 -0.0000 -0.0000
vn -0.0000 -1.0000 -0.0000
vn -0.0000 1.0000 -0.0000
vt 0.498920 0.504323
vt 0.499104 0.504323
vt 0.499104 0.504508
vt 0.498920 0.504508
vt 0.499104 0.504692
vt 0.498920 0.504692
vt 0.499104 0.504876
vt 0.498920 0.504876
vt 0.499104 0.505060
vt 0.498920 0.505060
vt 0.498736 0.504692
vt 0.498736 0.504876
vt 0.499288 0.504692
vt 0.499288 0.504876
s 0
usemtl Vinyle
f 25/33/13 26/34/13 28/35/13 27/36/13
f 27/36/14 28/35/14 32/37/14 31/38/14
f 31/38/15 32/37/15 30/39/15 29/40/15
f 29/40/16 30/39/16 26/41/16 25/42/16
f 27/43/17 31/38/17 29/40/17 25/44/17
f 32/37/18 28/45/18 26/46/18 30/39/18
f 33/33/15 35/36/15 36/35/15 34/34/15
f 35/36/14 39/38/14 40/37/14 36/35/14
f 39/38/13 37/40/13 38/39/13 40/37/13
f 37/40/16 33/42/16 34/41/16 38/39/16
f 35/43/17 33/44/17 37/40/17 39/38/17
f 40/37/18 38/39/18 34/46/18 36/45/18
o Scène
v -0.450000 0.025000 -0.550000
v -0.450000 0.095000 -0.550000
v -0.450000 0.025000 -1.000000
v -0.450000 0.095000 -1.000000
v 0.450000 0.025000 -0.550000
v 0.450000 0.095000 -0.550000
v 0.450000 0.025000 -1.000000
v 0.450000 0.095000 -1.000000
vn -1.0000 -0.0000 -0.0000
vn -0.0000 -0.0000 -1.0000
vn 1.0000 -0.0000 -0.0000
vn -0.0000 -0.0000 1.0000
vn -0.0000 -1.0000 -0.0000
vn -0.0000 1.0000 -0.0000
vt 0.498685 0.504064
vt 0.498963 0.504064
vt 0.498963 0.504342
vt 0.498685 0.504342
vt 0.375000 0.250000
vt 0.625000 0.250000
vt 0.625000 0.500000
vt 0.375000 0.500000
vt 0.498685 0.504621
vt 0.498963 0.504621
vt 0.498963 0.504900
vt 0.498685 0.504900
vt 0.498963 0.505179
vt 0.498685 0.505179
vt 0.125000 0.500000
vt 0.375000 0.750000
vt 0.125000 0.750000
vt 0.650047 1.000000
vt 0.350048 1.000000
vt 0.350048 0.774940
vt 0.650047 0.774940
s 0
usemtl Vinyle
f 41/47/19 42/48/19 44/49/19 43/50/19
f 43/51/20 44/52/20 48/53/20 47/54/20
f 47/55/21 48/56/21 46/57/21 45/58/21
f 45/58/22 46/57/22 42/59/22 41/60/22
f 43/61/23 47/54/23 45/62/23 41/63/23
f 48/64/24 44/65/24 42/66/24 46/67/24
o Rampe
v -0.850000 0.025000 -0.800000
v -0.850000 0.025000 -1.000000
v -0.450000 0.025000 -0.800000
v -0.450000 0.095000 -0.800000
v -0.450000 0.025000 -1.000000
v -0.450000 0.095000 -1.000000
v 0.850000 0.025000 -0.800000
v 0.850000 0.025000 -1.000000
v 0.450000 0.025000 -0.800000
v 0.450000 0.095000 -0.800000
v 0.450000 0.025000 -1.000000
v 0.450000 0.095000 -1.000000
vn -0.1724 0.9850 -0.0000
vn -0.0000 -0.0000 -1.0000
vn 1.0000 -0.0000 -0.0000
vn -0.0000 -1.0000 -0.0000
vn -0.0000 -0.0000 1.0000
vn 0.1724 0.9850 -0.0000
vn -1.0000 -0.0000 -0.0000
vt 0.350048 0.899960
vt 0.216652 0.899960
vt 0.216652 1.000000
vt 0.350048 1.000000
vt 0.375000 0.500000
vt 0.125000 0.500000
vt 0.625000 0.500000
vt 0.625000 0.750000
vt 0.375000 0.750000
vt 0.125000 0.750000
vt 0.498806 0.504854
vt 0.499101 0.504854
vt 0.499396 0.504854
vt 0.783348 0.899960
vt 0.783348 1.000000
vt 0.649952 1.000000
vt 0.649952 0.899960
vt 0.498682 0.504600
vt 0.499446 0.504600
vt 0.499064 0.504600
s 0
usemtl Vinyle
f 49/68/25 52/69/25 54/70/25 50/71/25
f 53/72/26 50/73/26 54/74/26
f 53/72/27 54/74/27 52/75/27 51/76/27
f 50/73/28 53/72/28 51/76/28 49/77/28
f 49/78/29 51/79/29 52/80/29
f 55/81/30 56/82/30 60/83/30 58/84/30
f 59/72/26 60/74/26 56/73/26
f 59/72/31 57/76/31 58/75/31 60/74/31
f 56/73/28 55/77/28 57/76/28 59/72/28
f 55/85/29 58/86/29 57/87/29
