# Blender 4.0.2
# www.blender.org
o Caisse_couleur
v -0.075000 -0.000000 0.025000
v -0.075000 0.030000 0.025000
v -0.075000 0.000000 -0.025000
v -0.075000 0.030000 -0.025000
v 0.075000 -0.000000 0.025000
v 0.075000 0.030000 0.025000
v 0.075000 0.000000 -0.025000
v 0.075000 0.030000 -0.025000
v 0.025000 0.000000 -0.025000
v -0.025000 0.000000 -0.025000
v -0.025000 0.030000 -0.025000
v 0.025000 0.030000 -0.025000
v -0.025000 -0.000000 0.025000
v 0.025000 -0.000000 0.025000
v 0.025000 0.030000 0.025000
v -0.025000 0.030000 0.025000
vn -1.0000 -0.0000 -0.0000
vn -0.0000 -0.0000 -1.0000
vn 1.0000 -0.0000 -0.0000
vn -0.0000 -0.0000 1.0000
vn -0.0000 -1.0000 -0.0000
vn -0.0000 1.0000 -0.0000
vt 0.479354 0.517595
vt 0.480319 0.517595
vt 0.480319 0.518560
vt 0.479354 0.518560
vt 0.479354 0.519204
vt 0.480319 0.519204
vt 0.480319 0.519526
vt 0.479354 0.519526
vt 0.480319 0.520491
vt 0.479354 0.520491
vt 0.479354 0.521134
vt 0.480319 0.521134
vt 0.480319 0.521456
vt 0.479354 0.521456
vt 0.272470 0.589893
vt 0.273559 0.589893
vt 0.273559 0.593162
vt 0.272470 0.593162
vt 0.616728 0.580687
vt 0.616728 0.580039
vt 0.617176 0.580039
vt 0.617176 0.580687
vt 0.616728 0.581983
vt 0.616728 0.581335
vt 0.617176 0.581335
vt 0.617176 0.581983
vt 0.634291 0.505078
vt 0.600701 0.505078
vt 0.600701 0.455534
vt 0.634290 0.455534
vt 0.270291 0.589893
vt 0.271380 0.589893
vt 0.271380 0.593162
vt 0.270291 0.593162
vt 0.600734 0.375344
vt 0.634303 0.375344
vt 0.634303 0.424973
vt 0.600734 0.424973
vt 0.480319 0.520813
vt 0.479354 0.520813
vt 0.480319 0.518882
vt 0.479354 0.518882
s 0
f 1/1/1 2/2/1 4/3/1 3/4/1
f 9/5/2 12/6/2 8/7/2 7/8/2
f 7/8/3 8/7/3 6/9/3 5/10/3
f 13/11/4 16/12/4 2/13/4 1/14/4
f 9/15/5 7/16/5 5/17/5 14/18/5
f 11/19/6 4/20/6 2/21/6 16/22/6
f 8/23/6 12/24/6 15/25/6 6/26/6
f 12/27/6 11/28/6 16/29/6 15/30/6
f 3/31/5 10/32/5 13/33/5 1/34/5
f 10/35/5 9/36/5 14/37/5 13/38/5
f 5/10/4 6/9/4 15/39/4 14/40/4
f 14/40/4 15/39/4 16/12/4 13/11/4
f 3/4/2 4/3/2 11/41/2 10/42/2
f 10/42/2 11/41/2 12/6/2 9/5/2
