# Blender 4.0.2
# www.blender.org
o Caisse_noire
v -0.075000 -0.015000 0.025000
v -0.075000 0.015000 0.025000
v -0.075000 -0.015000 -0.025000
v -0.075000 0.015000 -0.025000
v 0.075000 -0.015000 0.025000
v 0.075000 0.015000 0.025000
v 0.075000 -0.015000 -0.025000
v 0.075000 0.015000 -0.025000
v 0.025000 -0.015000 -0.025000
v -0.025000 -0.015000 -0.025000
v -0.025000 0.015000 -0.025000
v 0.025000 0.015000 -0.025000
v -0.025000 -0.015000 0.025000
v 0.025000 -0.015000 0.025000
v 0.025000 0.015000 0.025000
v -0.025000 0.015000 0.025000
vn -1.0000 -0.0000 -0.0000
vn -0.0000 -0.0000 -1.0000
vn 1.0000 -0.0000 -0.0000
vn -0.0000 -0.0000 1.0000
vn -0.0000 -1.0000 -0.0000
vn -0.0000 1.0000 -0.0000
vt 0.865682 0.361735
vt 0.866379 0.361735
vt 0.866379 0.362431
vt 0.865682 0.362431
vt 0.865682 0.362895
vt 0.866379 0.362895
vt 0.866379 0.363127
vt 0.865682 0.363127
vt 0.866379 0.363823
vt 0.865682 0.363823
vt 0.865682 0.364287
vt 0.866379 0.364287
vt 0.866379 0.364519
vt 0.865682 0.364519
vt 0.865289 0.358951
vt 0.866075 0.358951
vt 0.866075 0.361308
vt 0.865289 0.361308
vt 0.864085 0.353981
vt 0.864085 0.353332
vt 0.864534 0.353332
vt 0.864534 0.353981
vt 0.864085 0.355277
vt 0.864085 0.354629
vt 0.864534 0.354629
vt 0.864534 0.355277
vt 0.886933 0.504065
vt 0.853626 0.504065
vt 0.853626 0.456325
vt 0.886933 0.456325
vt 0.863718 0.358951
vt 0.864504 0.358951
vt 0.864504 0.361308
vt 0.863718 0.361308
vt 0.886960 0.425200
vt 0.853569 0.425200
vt 0.853569 0.375122
vt 0.886960 0.375122
vt 0.866378 0.364055
vt 0.865682 0.364055
vt 0.866378 0.362663
vt 0.865682 0.362663
s 0
f 1/1/1 2/2/1 4/3/1 3/4/1
f 9/5/2 12/6/2 8/7/2 7/8/2
f 7/8/3 8/7/3 6/9/3 5/10/3
f 13/11/4 16/12/4 2/13/4 1/14/4
f 9/15/5 7/16/5 5/17/5 14/18/5
f 11/19/6 4/20/6 2/21/6 16/22/6
f 8/23/6 12/24/6 15/25/6 6/26/6
f 12/27/6 11/28/6 16/29/6 15/30/6
f 3/31/5 10/32/5 13/33/5 1/34/5
f 10/35/5 9/36/5 14/37/5 13/38/5
f 5/10/4 6/9/4 15/39/4 14/40/4
f 14/40/4 15/39/4 16/12/4 13/11/4
f 3/4/2 4/3/2 11/41/2 10/42/2
f 10/42/2 11/41/2 12/6/2 9/5/2
