# Blender 4.0.2
# www.blender.org
mtllib conserve.mtl
o Conserve
v 0.000000 -0.054500 -0.036500
v 0.000000 0.054500 -0.036500
v 0.007121 -0.054500 -0.035799
v 0.007121 0.054500 -0.035799
v 0.013968 -0.054500 -0.033722
v 0.013968 0.054500 -0.033722
v 0.020278 -0.054500 -0.030349
v 0.020278 0.054500 -0.030349
v 0.025809 -0.054500 -0.025809
v 0.025809 0.054500 -0.025809
v 0.030349 -0.054500 -0.020278
v 0.030349 0.054500 -0.020278
v 0.033722 -0.054500 -0.013968
v 0.033722 0.054500 -0.013968
v 0.035799 -0.054500 -0.007121
v 0.035799 0.054500 -0.007121
v 0.036500 -0.054500 0.000000
v 0.036500 0.054500 0.000000
v 0.035799 -0.054500 0.007121
v 0.035799 0.054500 0.007121
v 0.033722 -0.054500 0.013968
v 0.033722 0.054500 0.013968
v 0.030349 -0.054500 0.020278
v 0.030349 0.054500 0.020278
v 0.025809 -0.054500 0.025809
v 0.025809 0.054500 0.025809
v 0.020278 -0.054500 0.030349
v 0.020278 0.054500 0.030349
v 0.013968 -0.054500 0.033722
v 0.013968 0.054500 0.033722
v 0.007121 -0.054500 0.035799
v 0.007121 0.054500 0.035799
v 0.000000 -0.054500 0.036500
v 0.000000 0.054500 0.036500
v -0.007121 -0.054500 0.035799
v -0.007121 0.054500 0.035799
v -0.013968 -0.054500 0.033722
v -0.013968 0.054500 0.033722
v -0.020278 -0.054500 0.030349
v -0.020278 0.054500 0.030349
v -0.025809 -0.054500 0.025809
v -0.025809 0.054500 0.025809
v -0.030349 -0.054500 0.020278
v -0.030349 0.054500 0.020278
v -0.033722 -0.054500 0.013968
v -0.033722 0.054500 0.013968
v -0.035799 -0.054500 0.007121
v -0.035799 0.054500 0.007121
v -0.036500 -0.054500 0.000000
v -0.036500 0.054500 0.000000
v -0.035799 -0.054500 -0.007121
v -0.035799 0.054500 -0.007121
v -0.033722 -0.054500 -0.013968
v -0.033722 0.054500 -0.013968
v -0.030349 -0.054500 -0.020278
v -0.030349 0.054500 -0.020278
v -0.025809 -0.054500 -0.025809
v -0.025809 0.054500 -0.025809
v -0.020278 -0.054500 -0.030349
v -0.020278 0.054500 -0.030349
v -0.013968 -0.054500 -0.033722
v -0.013968 0.054500 -0.033722
v -0.007121 -0.054500 -0.035799
v -0.007121 0.054500 -0.035799
vn 0.0980 -0.0000 -0.9952
vn 0.2903 -0.0000 -0.9569
vn 0.4714 -0.0000 -0.8819
vn 0.6344 -0.0000 -0.7730
vn 0.7730 -0.0000 -0.6344
vn 0.8819 -0.0000 -0.4714
vn 0.9569 -0.0000 -0.2903
vn 0.9952 -0.0000 -0.0980
vn 0.9952 -0.0000 0.0980
vn 0.9569 -0.0000 0.2903
vn 0.8819 -0.0000 0.4714
vn 0.7730 -0.0000 0.6344
vn 0.6344 -0.0000 0.7730
vn 0.4714 -0.0000 0.8819
vn 0.2903 -0.0000 0.9569
vn 0.0980 -0.0000 0.9952
vn -0.0980 -0.0000 0.9952
vn -0.2903 -0.0000 0.9569
vn -0.4714 -0.0000 0.8819
vn -0.6344 -0.0000 0.7730
vn -0.7730 -0.0000 0.6344
vn -0.8819 -0.0000 0.4714
vn -0.9569 -0.0000 0.2903
vn -0.9952 -0.0000 0.0980
vn -0.9952 -0.0000 -0.0980
vn -0.9569 -0.0000 -0.2903
vn -0.8819 -0.0000 -0.4714
vn -0.7730 -0.0000 -0.6344
vn -0.6344 -0.0000 -0.7730
vn -0.4714 -0.0000 -0.8819
vn -0.0000 1.0000 -0.0000
vn -0.2903 -0.0000 -0.9569
vn -0.0980 -0.0000 -0.9952
vn -0.0000 -1.0000 -0.0000
vt 1.000000 0.000000
vt 1.000000 1.000000
vt 0.968750 1.000000
vt 0.968750 0.000000
vt 0.937500 1.000000
vt 0.937500 0.000000
vt 0.906250 1.000000
vt 0.906250 0.000000
vt 0.875000 1.000000
vt 0.875000 0.000000
vt 0.843750 1.000000
vt 0.843750 0.000000
vt 0.812500 1.000000
vt 0.812500 0.000000
vt 0.781250 1.000000
vt 0.781250 0.000000
vt 0.750000 1.000000
vt 0.750000 0.000000
vt 0.718750 1.000000
vt 0.718750 0.000000
vt 0.687500 1.000000
vt 0.687500 0.000000
vt 0.656250 1.000000
vt 0.656250 0.000000
vt 0.625000 1.000000
vt 0.625000 0.000000
vt 0.593750 1.000000
vt 0.593750 0.000000
vt 0.562500 1.000000
vt 0.562500 0.000000
vt 0.531250 1.000000
vt 0.531250 0.000000
vt 0.500000 1.000000
vt 0.500000 0.000000
vt 0.468750 1.000000
vt 0.468750 0.000000
vt 0.437500 1.000000
vt 0.437500 0.000000
vt 0.406250 1.000000
vt 0.406250 0.000000
vt 0.375000 1.000000
vt 0.375000 0.000000
vt 0.343750 1.000000
vt 0.343750 0.000000
vt 0.312500 1.000000
vt 0.312500 0.000000
vt 0.281250 1.000000
vt 0.281250 0.000000
vt 0.250000 1.000000
vt 0.250000 0.000000
vt 0.218750 1.000000
vt 0.218750 0.000000
vt 0.187500 1.000000
vt 0.187500 0.000000
vt 0.156250 1.000000
vt 0.156250 0.000000
vt 0.125000 1.000000
vt 0.125000 0.000000
vt 0.093750 1.000000
vt 0.093750 0.000000
vt 0.062500 1.000000
vt 0.062500 0.000000
vt 0.332169 0.312327
vt 0.330243 0.312516
vt 0.328318 0.312327
vt 0.326466 0.311765
vt 0.324759 0.310853
vt 0.323263 0.309625
vt 0.322035 0.308129
vt 0.321123 0.306422
vt 0.320561 0.304570
vt 0.320371 0.302644
vt 0.320561 0.300718
vt 0.321123 0.298866
vt 0.322035 0.297160
vt 0.323263 0.295664
vt 0.324759 0.294436
vt 0.326466 0.293524
vt 0.328318 0.292962
vt 0.330243 0.292772
vt 0.332169 0.292962
vt 0.334021 0.293524
vt 0.335728 0.294436
vt 0.337224 0.295664
vt 0.338452 0.297160
vt 0.339364 0.298866
vt 0.339926 0.300718
vt 0.340116 0.302644
vt 0.339926 0.304570
vt 0.339364 0.306422
vt 0.338452 0.308129
vt 0.337224 0.309625
vt 0.335728 0.310853
vt 0.334021 0.311765
vt 0.031250 1.000000
vt 0.031250 0.000000
vt 0.000000 1.000000
vt 0.000000 0.000000
vt 0.384810 0.733907
vt 0.383848 0.734002
vt 0.382923 0.734282
vt 0.382070 0.734738
vt 0.381323 0.735352
vt 0.380709 0.736099
vt 0.380254 0.736952
vt 0.379973 0.737877
vt 0.379878 0.738839
vt 0.379973 0.739801
vt 0.380254 0.740727
vt 0.380709 0.741579
vt 0.381323 0.742327
vt 0.382070 0.742940
vt 0.382923 0.743396
vt 0.383848 0.743676
vt 0.384810 0.743771
vt 0.385773 0.743676
vt 0.386698 0.743396
vt 0.387550 0.742940
vt 0.388298 0.742327
vt 0.388911 0.741579
vt 0.389367 0.740727
vt 0.389648 0.739801
vt 0.389742 0.738839
vt 0.389648 0.737877
vt 0.389367 0.736952
vt 0.388911 0.736099
vt 0.388298 0.735352
vt 0.387550 0.734738
vt 0.386698 0.734282
vt 0.385773 0.734002
s 0
usemtl Material
f 1/1/1 2/2/1 4/3/1 3/4/1
f 3/4/2 4/3/2 6/5/2 5/6/2
f 5/6/3 6/5/3 8/7/3 7/8/3
f 7/8/4 8/7/4 10/9/4 9/10/4
f 9/10/5 10/9/5 12/11/5 11/12/5
f 11/12/6 12/11/6 14/13/6 13/14/6
f 13/14/7 14/13/7 16/15/7 15/16/7
f 15/16/8 16/15/8 18/17/8 17/18/8
f 17/18/9 18/17/9 20/19/9 19/20/9
f 19/20/10 20/19/10 22/21/10 21/22/10
f 21/22/11 22/21/11 24/23/11 23/24/11
f 23/24/12 24/23/12 26/25/12 25/26/12
f 25/26/13 26/25/13 28/27/13 27/28/13
f 27/28/14 28/27/14 30/29/14 29/30/14
f 29/30/15 30/29/15 32/31/15 31/32/15
f 31/32/16 32/31/16 34/33/16 33/34/16
f 33/34/17 34/33/17 36/35/17 35/36/17
f 35/36/18 36/35/18 38/37/18 37/38/18
f 37/38/19 38/37/19 40/39/19 39/40/19
f 39/40/20 40/39/20 42/41/20 41/42/20
f 41/42/21 42/41/21 44/43/21 43/44/21
f 43/44/22 44/43/22 46/45/22 45/46/22
f 45/46/23 46/45/23 48/47/23 47/48/23
f 47/48/24 48/47/24 50/49/24 49/50/24
f 49/50/25 50/49/25 52/51/25 51/52/25
f 51/52/26 52/51/26 54/53/26 53/54/26
f 53/54/27 54/53/27 56/55/27 55/56/27
f 55/56/28 56/55/28 58/57/28 57/58/28
f 57/58/29 58/57/29 60/59/29 59/60/29
f 59/60/30 60/59/30 62/61/30 61/62/30
f 4/63/31 2/64/31 64/65/31 62/66/31 60/67/31 58/68/31 56/69/31 54/70/31 52/71/31 50/72/31 48/73/31 46/74/31 44/75/31 42/76/31 40/77/31 38/78/31 36/79/31 34/80/31 32/81/31 30/82/31 28/83/31 26/84/31 24/85/31 22/86/31 20/87/31 18/88/31 16/89/31 14/90/31 12/91/31 10/92/31 8/93/31 6/94/31
f 61/62/32 62/61/32 64/95/32 63/96/32
f 63/96/33 64/95/33 2/97/33 1/98/33
f 1/99/34 3/100/34 5/101/34 7/102/34 9/103/34 11/104/34 13/105/34 15/106/34 17/107/34 19/108/34 21/109/34 23/110/34 25/111/34 27/112/34 29/113/34 31/114/34 33/115/34 35/116/34 37/117/34 39/118/34 41/119/34 43/120/34 45/121/34 47/122/34 49/123/34 51/124/34 53/125/34 55/126/34 57/127/34 59/128/34 61/129/34 63/130/34
