# Blender 4.0.2
# www.blender.org
o curseur
v 0.010000 0.050000 -0.050000
v 0.010000 0.050000 0.050000
v 0.010000 -0.000000 -0.050000
v 0.010000 0.000000 0.050000
v 0.010000 -0.050000 0.000000
v -0.025000 -0.030000 0.050000
v -0.035000 -0.030000 0.050000
v -0.025000 -0.030000 -0.050000
v -0.035000 -0.030000 -0.050000
v -0.035000 0.050000 0.050000
v -0.025000 0.005000 0.050000
v 0.000000 0.005000 0.050000
v 0.000000 0.000000 0.050000
v -0.035000 0.050000 0.040000
v -0.035000 0.015000 0.040000
v -0.035000 0.015000 -0.040000
v -0.035000 0.050000 -0.050000
v -0.035000 0.050000 -0.040000
v 0.000000 0.050000 0.040000
v 0.000000 0.050000 -0.040000
v 0.000000 -0.000000 -0.050000
v 0.000000 0.005000 -0.050000
v -0.025000 0.005000 -0.050000
v 0.000000 0.015000 0.040000
v 0.000000 0.015000 -0.040000
v -0.025000 0.000000 -0.037500
v -0.025000 0.000000 0.037500
v -0.025000 0.000038 0.038372
v -0.025000 0.000152 0.039236
v -0.025000 0.000341 0.040088
v -0.025000 0.000603 0.040920
v -0.025000 0.000937 0.041726
v -0.025000 0.001340 0.042500
v -0.025000 0.001808 0.043236
v -0.025000 0.002340 0.043928
v -0.025000 0.002929 0.044571
v -0.025000 0.003572 0.045160
v -0.025000 0.004264 0.045692
v -0.025000 0.005000 0.046160
v -0.025000 0.005000 -0.046160
v -0.025000 0.004264 -0.045692
v -0.025000 0.003572 -0.045160
v -0.025000 0.002929 -0.044571
v -0.025000 0.002340 -0.043928
v -0.025000 0.001808 -0.043236
v -0.025000 0.001340 -0.042500
v -0.025000 0.000937 -0.041726
v -0.025000 0.000603 -0.040920
v -0.025000 0.000341 -0.040088
v -0.025000 0.000152 -0.039236
v -0.025000 0.000038 -0.038372
v -0.025000 0.005000 -0.028840
v -0.025000 0.005000 0.028840
v -0.025000 0.004264 -0.029308
v -0.025000 0.004264 0.029308
v -0.025000 0.003572 -0.029840
v -0.025000 0.003572 0.029840
v -0.025000 0.002929 -0.030429
v -0.025000 0.002929 0.030429
v -0.025000 0.002340 -0.031072
v -0.025000 0.002340 0.031072
v -0.025000 0.001808 -0.031764
v -0.025000 0.001808 0.031764
v -0.025000 0.001340 -0.032500
v -0.025000 0.001340 0.032500
v -0.025000 0.000937 -0.033274
v -0.025000 0.000937 0.033274
v -0.025000 0.000603 -0.034080
v -0.025000 0.000603 0.034080
v -0.025000 0.000341 -0.034912
v -0.025000 0.000341 0.034912
v -0.025000 0.000152 -0.035764
v -0.025000 0.000152 0.035764
v -0.025000 0.000038 -0.036628
v -0.025000 0.000038 0.036628
v 0.000000 0.005000 -0.046160
v 0.000000 0.005000 -0.028840
v 0.000000 0.004264 -0.029308
v 0.000000 0.003572 -0.029840
v 0.000000 0.002929 -0.030429
v 0.000000 0.002340 -0.031072
v 0.000000 0.001808 -0.031764
v 0.000000 0.001340 -0.032500
v 0.000000 0.000937 -0.033274
v 0.000000 0.000603 -0.034080
v 0.000000 0.000341 -0.034912
v 0.000000 0.000152 -0.035764
v 0.000000 0.000038 -0.036628
v 0.000000 0.000000 -0.037500
v 0.000000 0.000038 -0.038372
v 0.000000 0.000152 -0.039236
v 0.000000 0.000341 -0.040088
v 0.000000 0.000603 -0.040920
v 0.000000 0.000937 -0.041726
v 0.000000 0.001340 -0.042500
v 0.000000 0.001808 -0.043236
v 0.000000 0.002340 -0.043928
v 0.000000 0.002929 -0.044571
v 0.000000 0.003572 -0.045160
v 0.000000 0.004264 -0.045692
v 0.000000 0.005000 0.046160
v 0.000000 0.005000 0.028840
v 0.000000 0.004264 0.045692
v 0.000000 0.003572 0.045160
v 0.000000 0.002929 0.044571
v 0.000000 0.002340 0.043928
v 0.000000 0.001808 0.043236
v 0.000000 0.001340 0.042500
v 0.000000 0.000937 0.041726
v 0.000000 0.000603 0.040920
v 0.000000 0.000341 0.040088
v 0.000000 0.000152 0.039236
v 0.000000 0.000038 0.038372
v 0.000000 0.000000 0.037500
v 0.000000 0.000038 0.036628
v 0.000000 0.000152 0.035764
v 0.000000 0.000341 0.034912
v 0.000000 0.000603 0.034080
v 0.000000 0.000937 0.033274
v 0.000000 0.001340 0.032500
v 0.000000 0.001808 0.031764
v 0.000000 0.002340 0.031072
v 0.000000 0.002929 0.030429
v 0.000000 0.003572 0.029840
v 0.000000 0.004264 0.029308
v 0.000000 -0.050000 0.000000
vn 1.0000 -0.0000 -0.0000
vn -0.0000 -1.0000 -0.0000
vn -0.0000 -0.0000 1.0000
vn -1.0000 -0.0000 -0.0000
vn -0.0000 1.0000 -0.0000
vn -0.0000 -0.0000 -1.0000
vn -0.0000 -0.5373 0.8434
vn -0.0000 -0.6088 0.7933
vn -0.0000 -0.6088 0.7934
vn -0.0000 -0.6756 0.7373
vn -0.0000 -0.7373 0.6756
vn -0.0000 -0.7934 0.6088
vn -0.0000 -0.8434 0.5373
vn -0.0000 -0.8870 0.4617
vn -0.0000 -0.9239 0.3827
vn -0.0000 -0.9537 0.3007
vn -0.0000 -0.9763 0.2164
vn -0.0000 -0.9914 0.1305
vn -0.0000 -0.9990 0.0436
vn -0.0000 -0.9990 -0.0436
vn -0.0000 -0.9914 -0.1305
vn -0.0000 -0.9763 -0.2164
vn -0.0000 -0.9537 -0.3007
vn -0.0000 -0.9239 -0.3827
vn -0.0000 -0.8870 -0.4617
vn -0.0000 -0.8434 -0.5373
vn -0.0000 -0.7934 -0.6088
vn -0.0000 -0.7373 -0.6756
vn -0.0000 -0.6756 -0.7373
vn -0.0000 -0.6088 -0.7934
vn -0.0000 -0.5373 -0.8434
vn -0.0000 -0.6088 -0.7933
vn -0.0000 -0.7071 -0.7071
vn -0.0000 -0.7071 0.7071
vt 0.933311 0.900078
vt 0.863142 0.900078
vt 0.933311 0.850086
vt 0.863142 0.850086
vt 0.898227 0.800095
vt 0.965118 0.808557
vt 0.965124 0.808668
vt 0.965051 0.808922
vt 0.965058 0.808985
vt 0.965443 0.808571
vt 0.965222 0.808170
vt 0.965400 0.808470
vt 0.965379 0.807658
vt 0.965415 0.807551
vt 0.965361 0.807659
vt 0.965384 0.808644
vt 0.965265 0.808703
vt 0.965118 0.808978
vt 0.965122 0.809033
vt 0.965146 0.809025
vt 0.965397 0.808666
vt 0.965290 0.809253
vt 0.965307 0.809924
vt 0.964526 0.809097
vt 0.964665 0.808981
vt 0.964734 0.809058
vt 0.965074 0.808998
vt 0.965277 0.808792
vt 0.965197 0.808968
vt 0.964873 0.808931
vt 0.965100 0.808260
vt 0.965107 0.808252
vt 0.965115 0.808244
vt 0.965122 0.808235
vt 0.965130 0.808226
vt 0.965137 0.808217
vt 0.965145 0.808208
vt 0.965152 0.808198
vt 0.965159 0.808188
vt 0.965165 0.808178
vt 0.965171 0.808168
vt 0.965176 0.808157
vt 0.965181 0.808146
vt 0.965039 0.808974
vt 0.965026 0.808970
vt 0.965012 0.808966
vt 0.964999 0.808963
vt 0.964985 0.808959
vt 0.964972 0.808956
vt 0.964958 0.808952
vt 0.964944 0.808949
vt 0.964930 0.808945
vt 0.964916 0.808942
vt 0.964902 0.808938
vt 0.964888 0.808935
vt 0.964944 0.808755
vt 0.965163 0.808299
vt 0.964941 0.808771
vt 0.965159 0.808297
vt 0.964937 0.808787
vt 0.965154 0.808294
vt 0.964932 0.808802
vt 0.965149 0.808292
vt 0.964928 0.808817
vt 0.965144 0.808289
vt 0.964923 0.808832
vt 0.965139 0.808287
vt 0.964917 0.808847
vt 0.965134 0.808284
vt 0.964911 0.808862
vt 0.965129 0.808281
vt 0.964905 0.808876
vt 0.965123 0.808277
vt 0.964898 0.808890
vt 0.965117 0.808274
vt 0.964890 0.808903
vt 0.965111 0.808270
vt 0.964882 0.808917
vt 0.965105 0.808266
vt 0.964746 0.808973
vt 0.964785 0.808640
vt 0.964781 0.808651
vt 0.964778 0.808661
vt 0.964775 0.808671
vt 0.964772 0.808681
vt 0.964770 0.808692
vt 0.964768 0.808704
vt 0.964766 0.808715
vt 0.964764 0.808727
vt 0.964764 0.808739
vt 0.964764 0.808751
vt 0.964764 0.808764
vt 0.964764 0.808778
vt 0.964757 0.808792
vt 0.964751 0.808807
vt 0.964746 0.808823
vt 0.964742 0.808839
vt 0.964739 0.808856
vt 0.964738 0.808873
vt 0.964737 0.808891
vt 0.964737 0.808908
vt 0.964738 0.808925
vt 0.964740 0.808942
vt 0.964743 0.808958
vt 0.965348 0.807687
vt 0.965059 0.808100
vt 0.965343 0.807699
vt 0.965337 0.807710
vt 0.965330 0.807722
vt 0.965320 0.807733
vt 0.965310 0.807745
vt 0.965300 0.807758
vt 0.965289 0.807772
vt 0.965279 0.807787
vt 0.965269 0.807803
vt 0.965259 0.807821
vt 0.965251 0.807840
vt 0.965242 0.807860
vt 0.965221 0.807875
vt 0.965203 0.807891
vt 0.965185 0.807908
vt 0.965168 0.807927
vt 0.965151 0.807946
vt 0.965136 0.807966
vt 0.965121 0.807987
vt 0.965108 0.808009
vt 0.965094 0.808031
vt 0.965082 0.808053
vt 0.965070 0.808076
vt 0.964637 0.807908
vt 0.964526 0.807761
s 0
f 1/1/1 2/2/1 3/3/1
f 3/3/1 2/2/1 4/4/1
f 3/3/1 4/4/1 5/5/1
f 6/6/2 7/7/2 8/8/2
f 8/8/2 7/7/2 9/9/2
f 7/7/3 6/6/3 10/10/3
f 10/10/3 6/6/3 11/11/3
f 10/10/3 11/11/3 2/12/3
f 2/12/3 11/11/3 12/13/3
f 2/12/3 12/13/3 4/14/3
f 4/14/3 12/13/3 13/15/3
f 10/10/4 14/16/4 7/7/4
f 7/7/4 14/16/4 15/17/4
f 7/7/4 15/17/4 9/9/4
f 9/9/4 15/17/4 16/18/4
f 9/9/4 16/18/4 17/19/4
f 17/19/4 16/18/4 18/20/4
f 14/16/5 10/10/5 19/21/5
f 19/21/5 10/10/5 2/12/5
f 19/21/5 2/12/5 20/22/5
f 20/22/5 2/12/5 1/23/5
f 20/22/5 1/23/5 18/20/5
f 18/20/5 1/23/5 17/19/5
f 1/23/6 3/24/6 21/25/6
f 1/23/6 21/25/6 22/26/6
f 1/23/6 22/26/6 23/27/6
f 1/23/6 23/27/6 17/19/6
f 17/19/6 23/27/6 9/9/6
f 9/9/6 23/27/6 8/8/6
f 15/17/5 24/28/5 16/18/5
f 16/18/5 24/28/5 25/29/5
f 25/29/4 24/28/4 20/22/4
f 20/22/4 24/28/4 19/21/4
f 16/18/3 25/29/3 18/20/3
f 18/20/3 25/29/3 20/22/3
f 24/28/6 15/17/6 19/21/6
f 19/21/6 15/17/6 14/16/6
f 6/6/1 8/8/1 26/30/1
f 6/6/1 26/30/1 27/31/1
f 6/6/1 27/31/1 28/32/1
f 6/6/1 28/32/1 29/33/1
f 6/6/1 29/33/1 30/34/1
f 6/6/1 30/34/1 31/35/1
f 6/6/1 31/35/1 32/36/1
f 6/6/1 32/36/1 33/37/1
f 6/6/1 33/37/1 34/38/1
f 6/6/1 34/38/1 35/39/1
f 6/6/1 35/39/1 36/40/1
f 6/6/1 36/40/1 37/41/1
f 6/6/1 37/41/1 38/42/1
f 6/6/1 38/42/1 39/43/1
f 6/6/1 39/43/1 11/11/1
f 8/8/1 23/27/1 40/44/1
f 8/8/1 40/44/1 41/45/1
f 8/8/1 41/45/1 42/46/1
f 8/8/1 42/46/1 43/47/1
f 8/8/1 43/47/1 44/48/1
f 8/8/1 44/48/1 45/49/1
f 8/8/1 45/49/1 46/50/1
f 8/8/1 46/50/1 47/51/1
f 8/8/1 47/51/1 48/52/1
f 8/8/1 48/52/1 49/53/1
f 8/8/1 49/53/1 50/54/1
f 8/8/1 50/54/1 51/55/1
f 8/8/1 51/55/1 26/30/1
f 52/56/1 53/57/1 54/58/1
f 54/58/1 53/57/1 55/59/1
f 54/58/1 55/59/1 56/60/1
f 56/60/1 55/59/1 57/61/1
f 56/60/1 57/61/1 58/62/1
f 58/62/1 57/61/1 59/63/1
f 58/62/1 59/63/1 60/64/1
f 60/64/1 59/63/1 61/65/1
f 60/64/1 61/65/1 62/66/1
f 62/66/1 61/65/1 63/67/1
f 62/66/1 63/67/1 64/68/1
f 64/68/1 63/67/1 65/69/1
f 64/68/1 65/69/1 66/70/1
f 66/70/1 65/69/1 67/71/1
f 66/70/1 67/71/1 68/72/1
f 68/72/1 67/71/1 69/73/1
f 68/72/1 69/73/1 70/74/1
f 70/74/1 69/73/1 71/75/1
f 70/74/1 71/75/1 72/76/1
f 72/76/1 71/75/1 73/77/1
f 72/76/1 73/77/1 74/78/1
f 74/78/1 73/77/1 75/79/1
f 74/78/1 75/79/1 26/30/1
f 26/30/1 75/79/1 27/31/1
f 23/27/2 22/26/2 40/44/2
f 40/44/2 22/26/2 76/80/2
f 77/81/7 52/56/7 78/82/7
f 78/82/7 52/56/7 54/58/7
f 78/82/8 54/58/8 79/83/8
f 79/83/9 54/58/9 56/60/9
f 79/83/10 56/60/10 80/84/10
f 80/84/10 56/60/10 58/62/10
f 80/84/11 58/62/11 81/85/11
f 81/85/11 58/62/11 60/64/11
f 81/85/12 60/64/12 82/86/12
f 82/86/12 60/64/12 62/66/12
f 82/86/13 62/66/13 83/87/13
f 83/87/13 62/66/13 64/68/13
f 83/87/14 64/68/14 84/88/14
f 84/88/14 64/68/14 66/70/14
f 84/88/15 66/70/15 85/89/15
f 85/89/15 66/70/15 68/72/15
f 85/89/16 68/72/16 86/90/16
f 86/90/16 68/72/16 70/74/16
f 86/90/17 70/74/17 87/91/17
f 87/91/17 70/74/17 72/76/17
f 87/91/18 72/76/18 88/92/18
f 88/92/18 72/76/18 74/78/18
f 88/92/19 74/78/19 89/93/19
f 89/93/19 74/78/19 26/30/19
f 89/93/20 26/30/20 90/94/20
f 90/94/20 26/30/20 51/55/20
f 90/94/21 51/55/21 91/95/21
f 91/95/21 51/55/21 50/54/21
f 91/95/22 50/54/22 92/96/22
f 92/96/22 50/54/22 49/53/22
f 92/96/23 49/53/23 93/97/23
f 93/97/23 49/53/23 48/52/23
f 93/97/24 48/52/24 94/98/24
f 94/98/24 48/52/24 47/51/24
f 94/98/25 47/51/25 95/99/25
f 95/99/25 47/51/25 46/50/25
f 95/99/26 46/50/26 96/100/26
f 96/100/26 46/50/26 45/49/26
f 96/100/27 45/49/27 97/101/27
f 97/101/27 45/49/27 44/48/27
f 97/101/28 44/48/28 98/102/28
f 98/102/28 44/48/28 43/47/28
f 98/102/29 43/47/29 99/103/29
f 99/103/29 43/47/29 42/46/29
f 99/103/30 42/46/30 100/104/30
f 100/104/30 42/46/30 41/45/30
f 100/104/31 41/45/31 76/80/31
f 76/80/31 41/45/31 40/44/31
f 39/43/2 101/105/2 11/11/2
f 11/11/2 101/105/2 12/13/2
f 52/56/2 77/81/2 53/57/2
f 53/57/2 77/81/2 102/106/2
f 101/105/7 39/43/7 103/107/7
f 103/107/7 39/43/7 38/42/7
f 103/107/9 38/42/9 104/108/9
f 104/108/9 38/42/9 37/41/9
f 104/108/10 37/41/10 105/109/10
f 105/109/10 37/41/10 36/40/10
f 105/109/11 36/40/11 106/110/11
f 106/110/11 36/40/11 35/39/11
f 106/110/12 35/39/12 107/111/12
f 107/111/12 35/39/12 34/38/12
f 107/111/13 34/38/13 108/112/13
f 108/112/13 34/38/13 33/37/13
f 108/112/14 33/37/14 109/113/14
f 109/113/14 33/37/14 32/36/14
f 109/113/15 32/36/15 110/114/15
f 110/114/15 32/36/15 31/35/15
f 110/114/16 31/35/16 111/115/16
f 111/115/16 31/35/16 30/34/16
f 111/115/17 30/34/17 112/116/17
f 112/116/17 30/34/17 29/33/17
f 112/116/18 29/33/18 113/117/18
f 113/117/18 29/33/18 28/32/18
f 113/117/19 28/32/19 114/118/19
f 114/118/19 28/32/19 27/31/19
f 114/118/20 27/31/20 115/119/20
f 115/119/20 27/31/20 75/79/20
f 115/119/21 75/79/21 116/120/21
f 116/120/21 75/79/21 73/77/21
f 116/120/22 73/77/22 117/121/22
f 117/121/22 73/77/22 71/75/22
f 117/121/23 71/75/23 118/122/23
f 118/122/23 71/75/23 69/73/23
f 118/122/24 69/73/24 119/123/24
f 119/123/24 69/73/24 67/71/24
f 119/123/25 67/71/25 120/124/25
f 120/124/25 67/71/25 65/69/25
f 120/124/26 65/69/26 121/125/26
f 121/125/26 65/69/26 63/67/26
f 121/125/27 63/67/27 122/126/27
f 122/126/27 63/67/27 61/65/27
f 122/126/28 61/65/28 123/127/28
f 123/127/28 61/65/28 59/63/28
f 123/127/29 59/63/29 124/128/29
f 124/128/29 59/63/29 57/61/29
f 124/128/30 57/61/30 125/129/30
f 125/129/32 57/61/32 55/59/32
f 125/129/31 55/59/31 102/106/31
f 102/106/31 55/59/31 53/57/31
f 13/15/4 12/13/4 101/105/4
f 13/15/4 101/105/4 103/107/4
f 13/15/4 103/107/4 104/108/4
f 13/15/4 104/108/4 105/109/4
f 13/15/4 105/109/4 106/110/4
f 13/15/4 106/110/4 107/111/4
f 13/15/4 107/111/4 108/112/4
f 13/15/4 108/112/4 109/113/4
f 13/15/4 109/113/4 110/114/4
f 13/15/4 110/114/4 111/115/4
f 13/15/4 111/115/4 112/116/4
f 13/15/4 112/116/4 113/117/4
f 13/15/4 113/117/4 114/118/4
f 13/15/4 114/118/4 126/130/4
f 21/25/4 126/130/4 89/93/4
f 21/25/4 89/93/4 90/94/4
f 21/25/4 90/94/4 91/95/4
f 21/25/4 91/95/4 92/96/4
f 21/25/4 92/96/4 93/97/4
f 21/25/4 93/97/4 94/98/4
f 21/25/4 94/98/4 95/99/4
f 21/25/4 95/99/4 96/100/4
f 21/25/4 96/100/4 97/101/4
f 21/25/4 97/101/4 98/102/4
f 21/25/4 98/102/4 99/103/4
f 21/25/4 99/103/4 100/104/4
f 21/25/4 100/104/4 76/80/4
f 21/25/4 76/80/4 22/26/4
f 102/106/4 77/81/4 125/129/4
f 125/129/4 77/81/4 78/82/4
f 125/129/4 78/82/4 124/128/4
f 124/128/4 78/82/4 79/83/4
f 124/128/4 79/83/4 123/127/4
f 123/127/4 79/83/4 80/84/4
f 123/127/4 80/84/4 122/126/4
f 122/126/4 80/84/4 81/85/4
f 122/126/4 81/85/4 121/125/4
f 121/125/4 81/85/4 82/86/4
f 121/125/4 82/86/4 120/124/4
f 120/124/4 82/86/4 83/87/4
f 120/124/4 83/87/4 119/123/4
f 119/123/4 83/87/4 84/88/4
f 119/123/4 84/88/4 118/122/4
f 118/122/4 84/88/4 85/89/4
f 118/122/4 85/89/4 117/121/4
f 117/121/4 85/89/4 86/90/4
f 117/121/4 86/90/4 116/120/4
f 116/120/4 86/90/4 87/91/4
f 116/120/4 87/91/4 115/119/4
f 115/119/4 87/91/4 88/92/4
f 115/119/4 88/92/4 114/118/4
f 114/118/4 88/92/4 89/93/4
f 114/118/4 89/93/4 126/130/4
f 21/25/33 3/24/33 126/130/33
f 126/130/33 3/24/33 5/131/33
f 126/130/34 5/131/34 13/15/34
f 13/15/34 5/131/34 4/14/34
