# Blender 4.0.2
# www.blender.org
mtllib pami.mtl
o pami
v -0.050000 0.003333 0.050000
v -0.035000 0.103333 0.035000
v -0.050000 0.003333 -0.050000
v -0.035000 0.103333 -0.035000
v 0.050000 0.003333 0.050000
v 0.035000 0.103333 0.035000
v 0.050000 0.003333 -0.050000
v 0.035000 0.103333 -0.035000
v -0.050000 0.103333 0.050000
v -0.050000 0.103333 -0.050000
v 0.050000 0.103333 -0.050000
v 0.050000 0.103333 0.050000
vn -1.0000 -0.0000 -0.0000
vn -0.0000 -0.0000 -1.0000
vn 1.0000 -0.0000 -0.0000
vn -0.0000 -0.0000 1.0000
vn -0.0000 -1.0000 -0.0000
vn -0.0000 1.0000 -0.0000
vt 0.501727 0.591371
vt 0.501727 0.605482
vt 0.487615 0.605482
vt 0.487615 0.591371
vt 0.501727 0.577259
vt 0.487615 0.577259
vt 0.473504 0.591371
vt 0.473504 0.605482
vt 0.473504 0.577259
vt 0.487615 0.563147
vt 0.501727 0.563147
vt 0.996798 0.996798
vt 0.003202 0.996798
vt 0.003202 0.003202
vt 0.996798 0.003202
vt 0.595276 0.516582
vt 0.595276 0.500281
vt 0.597993 0.497564
vt 0.597993 0.519299
vt 0.578975 0.500281
vt 0.576258 0.497564
vt 0.578975 0.516582
vt 0.576258 0.519299
s 0
usemtl aruco
f 1/1/1 9/2/1 10/3/1 3/4/1
f 3/5/2 10/1/2 11/4/2 7/6/2
f 7/7/3 11/4/3 12/3/3 5/8/3
f 5/9/4 12/6/4 9/4/4 1/7/4
f 3/10/5 7/11/5 5/5/5 1/6/5
f 8/12/6 4/13/6 2/14/6 6/15/6
f 2/16/6 4/17/6 10/18/6 9/19/6
f 4/17/6 8/20/6 11/21/6 10/18/6
f 8/20/6 6/22/6 12/23/6 11/21/6
f 6/22/6 2/16/6 9/19/6 12/23/6
