# Blender 4.0.2
# www.blender.org
o Bordures_verticales.2026
v -1.522000 0.000000 1.025000
v -1.522000 0.117500 1.025000
v -1.522000 0.000000 -1.025000
v -1.522000 0.117500 -1.025000
v -1.500000 0.000000 1.025000
v -1.500000 0.117500 1.025000
v -1.500000 0.000000 -1.025000
v -1.500000 0.117500 -1.025000
v 1.522000 0.000000 1.025000
v 1.522000 0.117500 1.025000
v 1.522000 0.000000 -1.025000
v 1.522000 0.117500 -1.025000
v 1.500000 0.000000 1.025000
v 1.500000 0.117500 1.025000
v 1.500000 0.000000 -1.025000
v 1.500000 0.117500 -1.025000
vn -1.0000 -0.0000 -0.0000
vn -0.0000 -0.0000 -1.0000
vn 1.0000 -0.0000 -0.0000
vn -0.0000 -0.0000 1.0000
vn -0.0000 -1.0000 -0.0000
vn -0.0000 1.0000 -0.0000
vt 0.202928 0.828812
vt 0.202994 0.828812
vt 0.202994 0.828879
vt 0.202928 0.828879
vt 0.202994 0.828945
vt 0.202928 0.828945
vt 0.202994 0.829011
vt 0.202928 0.829011
vt 0.202994 0.829078
vt 0.202928 0.829078
vt 0.202861 0.828945
vt 0.202861 0.829011
vt 0.203060 0.828945
vt 0.203060 0.829011
s 0
f 1/1/1 2/2/1 4/3/1 3/4/1
f 3/4/2 4/3/2 8/5/2 7/6/2
f 7/6/3 8/5/3 6/7/3 5/8/3
f 5/8/4 6/7/4 2/9/4 1/10/4
f 3/11/5 7/6/5 5/8/5 1/12/5
f 8/5/6 4/13/6 2/14/6 6/7/6
f 9/1/3 11/4/3 12/3/3 10/2/3
f 11/4/2 15/6/2 16/5/2 12/3/2
f 15/6/1 13/8/1 14/7/1 16/5/1
f 13/8/4 9/10/4 10/9/4 14/7/4
f 11/11/5 9/12/5 13/8/5 15/6/5
f 16/5/6 14/7/6 10/14/6 12/13/6
o Table.2026
v -1.500000 0.000000 1.000000
v -1.500000 0.050000 1.000000
v -1.500000 0.000000 -1.000000
v -1.500000 0.050000 -1.000000
v 1.500000 0.000000 1.000000
v 1.500000 0.050000 1.000000
v 1.500000 0.000000 -1.000000
v 1.500000 0.050000 -1.000000
vn -1.0000 -0.0000 -0.0000
vn -0.0000 -0.0000 -1.0000
vn 1.0000 -0.0000 -0.0000
vn -0.0000 -0.0000 1.0000
vn -0.0000 -1.0000 -0.0000
vn -0.0000 1.0000 -0.0000
vt 0.201826 0.825972
vt 0.201866 0.825972
vt 0.201866 0.826012
vt 0.201826 0.826012
vt 0.201866 0.826051
vt 0.201826 0.826051
vt 0.201866 0.826091
vt 0.201826 0.826091
vt 0.201866 0.826130
vt 0.201826 0.826130
vt 0.557656 0.434869
vt 0.557656 0.694298
vt 0.442344 0.694298
vt 0.442344 0.434869
vt 1.000000 1.000000
vt 0.000000 1.000000
vt 0.000000 0.000000
vt 1.000000 0.000000
s 0
f 17/15/7 18/16/7 20/17/7 19/18/7
f 19/18/8 20/17/8 24/19/8 23/20/8
f 23/20/9 24/19/9 22/21/9 21/22/9
f 21/22/10 22/21/10 18/23/10 17/24/10
f 19/25/11 23/26/11 21/27/11 17/28/11
f 24/29/12 20/30/12 18/31/12 22/32/12
o Borduresn_horizontales.2026
v 1.500000 0.000000 1.025000
v 1.500000 0.117500 1.025000
v -1.500000 0.000000 1.025000
v -1.500000 0.117500 1.025000
v 1.500000 0.000000 1.000000
v 1.500000 0.117500 1.000000
v -1.500000 0.000000 1.000000
v -1.500000 0.117500 1.000000
v 1.500000 0.000000 -1.025000
v 1.500000 0.117500 -1.025000
v -1.500000 0.000000 -1.025000
v -1.500000 0.117500 -1.025000
v 1.500000 0.000000 -1.000000
v 1.500000 0.117500 -1.000000
v -1.500000 0.000000 -1.000000
v -1.500000 0.117500 -1.000000
v -0.101467 0.000000 1.025000
v 0.101467 0.000000 1.025000
v 0.101467 0.117500 1.025000
v -0.101467 0.117500 1.025000
v 0.101467 0.000000 1.000000
v -0.101467 0.000000 1.000000
v -0.101467 0.117500 1.000000
v 0.101467 0.117500 1.000000
vn -0.0000 -0.0000 1.0000
vn -1.0000 -0.0000 -0.0000
vn -0.0000 -0.0000 -1.0000
vn 1.0000 -0.0000 -0.0000
vn -0.0000 -1.0000 -0.0000
vn -0.0000 1.0000 -0.0000
vt 0.989624 0.010650
vt 0.989625 0.080834
vt 0.006993 0.080834
vt 0.006991 0.010650
vt 0.202333 0.816658
vt 0.202333 0.816658
vt 0.202333 0.816658
vt 0.202333 0.816658
vt 0.202333 0.816658
vt 0.202333 0.816658
vt 0.202333 0.816658
vt 0.202333 0.816658
vt 0.202333 0.816658
vt 0.202333 0.816658
vt 0.202778 0.816289
vt 0.202778 0.816235
vt 0.202223 0.816235
vt 0.202223 0.816289
vt 0.202333 0.816658
vt 0.202333 0.816658
vt 0.989468 0.084202
vt 0.989468 0.154198
vt 0.007022 0.154198
vt 0.007022 0.084202
vt 0.202778 0.816271
vt 0.202223 0.816271
vt 0.202223 0.816253
vt 0.202778 0.816253
s 0
f 41/33/13 44/34/13 28/35/13 27/36/13
f 27/37/14 28/38/14 32/39/14 31/40/14
f 45/41/15 48/42/15 30/42/15 29/41/15
f 29/41/16 30/42/16 26/43/16 25/44/16
f 42/45/17 45/41/17 29/41/17 25/45/17
f 48/42/18 43/46/18 26/46/18 30/42/18
f 33/47/15 35/48/15 36/49/15 34/50/15
f 35/37/14 39/40/14 40/39/14 36/38/14
f 39/40/13 37/41/13 38/42/13 40/39/13
f 37/41/16 33/44/16 34/43/16 38/42/16
f 35/51/17 33/45/17 37/41/17 39/40/17
f 40/39/18 38/42/18 34/46/18 36/52/18
f 32/39/18 28/52/18 44/52/18 47/39/18
f 47/39/18 44/52/18 43/46/18 48/42/18
f 27/51/17 31/40/17 46/40/17 41/51/17
f 41/51/17 46/40/17 45/41/17 42/45/17
f 31/40/15 32/39/15 47/39/15 46/40/15
f 46/40/15 47/39/15 48/42/15 45/41/15
f 25/53/13 26/54/13 43/55/13 42/56/13
f 42/57/13 43/58/13 44/59/13 41/60/13
o Grenier.2026
v -0.900000 0.047500 -0.550000
v -0.900000 0.102500 -0.550000
v -0.900000 0.047500 -1.000000
v -0.900000 0.102500 -1.000000
v 0.900000 0.047500 -0.550000
v 0.900000 0.102500 -0.550000
v 0.900000 0.047500 -1.000000
v 0.900000 0.102500 -1.000000
v 0.885000 0.047500 -1.000000
v 0.885000 0.102500 -1.000000
v 0.885000 0.047500 -0.550000
v 0.885000 0.102500 -0.550000
v -0.885000 0.047500 -1.000000
v -0.885000 0.102500 -0.550000
v -0.885000 0.102500 -1.000000
v -0.885000 0.047500 -0.550000
v -0.900000 0.117500 -0.550000
v -0.900000 0.117500 -1.000000
v 0.885000 0.117500 -1.000000
v 0.900000 0.117500 -1.000000
v 0.900000 0.117500 -0.550000
v -0.885000 0.117500 -0.550000
v 0.885000 0.117500 -0.550000
v -0.885000 0.117500 -1.000000
vn -1.0000 -0.0000 -0.0000
vn -0.0000 -0.0000 -1.0000
vn 1.0000 -0.0000 -0.0000
vn -0.0000 -0.0000 1.0000
vn -0.0000 -1.0000 -0.0000
vn -0.0000 1.0000 -0.0000
vt 0.202210 0.845801
vt 0.202210 0.845801
vt 0.202210 0.845801
vt 0.202210 0.845801
vt 0.499301 0.504029
vt 0.499427 0.504029
vt 0.499427 0.504280
vt 0.499301 0.504280
vt 0.202204 0.845822
vt 0.202204 0.845840
vt 0.202210 0.845801
vt 0.499175 0.504029
vt 0.498877 0.504063
vt 0.498961 0.504695
vt 0.499175 0.504280
vt 0.795000 1.000000
vt 0.205145 1.000000
vt 0.205145 0.774940
vt 0.795000 0.774940
vt 0.205000 1.000000
vt 0.200000 1.000000
vt 0.200000 0.774940
vt 0.205000 0.774940
vt 0.799658 1.000000
vt 0.794826 1.000000
vt 0.794826 0.774940
vt 0.799658 0.774940
vt 0.202210 0.845840
vt 0.202210 0.845822
s 0
f 49/61/19 50/62/19 52/62/19 51/61/19
f 57/61/20 58/61/20 56/61/20 55/61/20
f 55/61/21 56/62/21 54/63/21 53/64/21
f 64/63/22 62/63/22 50/63/22 49/64/22
f 57/65/23 55/66/23 53/67/23 59/68/23
f 60/63/22 54/63/22 69/63/22 71/63/22
f 62/69/21 63/70/21 72/70/21 70/69/21
f 61/61/23 57/71/23 59/71/23 64/63/23
f 53/64/22 54/63/22 60/63/22 59/64/22
f 61/61/20 63/61/20 58/61/20 57/61/20
f 51/61/20 52/61/20 63/61/20 61/61/20
f 51/72/23 61/73/23 64/74/23 49/75/23
f 58/76/24 63/77/24 62/78/24 60/79/24
f 59/64/22 60/63/22 62/63/22 64/63/22
f 72/80/24 66/81/24 65/82/24 70/83/24
f 68/84/24 67/85/24 71/86/24 69/87/24
f 52/62/19 50/62/19 65/62/19 66/62/19
f 63/61/20 52/61/20 66/61/20 72/61/20
f 50/63/22 62/63/22 70/63/22 65/63/22
f 58/88/19 60/89/19 71/89/19 67/88/19
f 56/61/20 58/61/20 67/61/20 68/61/20
f 54/63/21 56/62/21 68/62/21 69/63/21
